<mxfile host="app.diagrams.net" modified="2023-12-06T11:26:33.013Z" agent="Mozilla/5.0 (Windows NT 10.0; Win64; x64) AppleWebKit/537.36 (KHTML, like Gecko) Chrome/119.0.0.0 Safari/537.36 Edg/119.0.0.0" etag="M1eOT_f-CjAd7hzcypNv" version="22.1.5" type="github">
  <diagram name="Page-1" id="58cdce13-f638-feb5-8d6f-7d28b1aa9fa0">
    <mxGraphModel dx="2049" dy="1930" grid="1" gridSize="10" guides="1" tooltips="1" connect="1" arrows="1" fold="1" page="1" pageScale="1" pageWidth="1100" pageHeight="850" background="none" math="0" shadow="0">
      <root>
        <mxCell id="0" />
        <mxCell id="1" parent="0" />
        <mxCell id="ZebYZS7DTa-WAOe8R4C2-2" value="" style="ellipse;whiteSpace=wrap;html=1;fontSize=12;" parent="1" vertex="1">
          <mxGeometry x="945" y="725.05" width="90" height="90" as="geometry" />
        </mxCell>
        <mxCell id="TVU8WiVwyzAPrq7MWqk_-146" value="" style="ellipse;whiteSpace=wrap;html=1;fontSize=12;" parent="1" vertex="1">
          <mxGeometry x="830" y="333.94" width="90" height="90" as="geometry" />
        </mxCell>
        <mxCell id="TVU8WiVwyzAPrq7MWqk_-108" value="" style="ellipse;whiteSpace=wrap;html=1;fontSize=12;" parent="1" vertex="1">
          <mxGeometry x="390" y="945.05" width="90" height="90" as="geometry" />
        </mxCell>
        <mxCell id="TVU8WiVwyzAPrq7MWqk_-109" value="" style="ellipse;whiteSpace=wrap;html=1;fontSize=12;" parent="1" vertex="1">
          <mxGeometry x="700" y="770.0500000000001" width="90" height="90" as="geometry" />
        </mxCell>
        <mxCell id="TVU8WiVwyzAPrq7MWqk_-110" value="" style="ellipse;whiteSpace=wrap;html=1;fontSize=12;" parent="1" vertex="1">
          <mxGeometry x="650" y="870.0500000000001" width="90" height="90" as="geometry" />
        </mxCell>
        <mxCell id="TVU8WiVwyzAPrq7MWqk_-111" value="" style="ellipse;whiteSpace=wrap;html=1;fontSize=12;" parent="1" vertex="1">
          <mxGeometry x="574.18" y="785.0500000000001" width="90" height="90" as="geometry" />
        </mxCell>
        <mxCell id="TVU8WiVwyzAPrq7MWqk_-112" value="" style="ellipse;whiteSpace=wrap;html=1;fontSize=12;" parent="1" vertex="1">
          <mxGeometry x="500" y="870.0500000000001" width="90" height="90" as="geometry" />
        </mxCell>
        <mxCell id="TVU8WiVwyzAPrq7MWqk_-113" value="" style="ellipse;whiteSpace=wrap;html=1;fontSize=12;" parent="1" vertex="1">
          <mxGeometry x="410" y="805.0500000000001" width="90" height="90" as="geometry" />
        </mxCell>
        <mxCell id="TVU8WiVwyzAPrq7MWqk_-45" value="" style="ellipse;whiteSpace=wrap;html=1;fontSize=12;" parent="1" vertex="1">
          <mxGeometry x="850" y="445.05" width="90" height="90" as="geometry" />
        </mxCell>
        <mxCell id="TVU8WiVwyzAPrq7MWqk_-12" style="rounded=0;orthogonalLoop=1;jettySize=auto;html=1;exitX=0.963;exitY=0.194;exitDx=0;exitDy=0;entryX=0;entryY=1;entryDx=0;entryDy=0;exitPerimeter=0;fontSize=12;" parent="1" source="jqPWbYdJGxuGW5hHQSQh-2" target="TVU8WiVwyzAPrq7MWqk_-4" edge="1">
          <mxGeometry relative="1" as="geometry" />
        </mxCell>
        <mxCell id="TVU8WiVwyzAPrq7MWqk_-13" value="E/e" style="edgeLabel;html=1;align=center;verticalAlign=middle;resizable=0;points=[];fontSize=12;fontStyle=1" parent="TVU8WiVwyzAPrq7MWqk_-12" vertex="1" connectable="0">
          <mxGeometry x="-0.0128" y="3" relative="1" as="geometry">
            <mxPoint as="offset" />
          </mxGeometry>
        </mxCell>
        <mxCell id="jqPWbYdJGxuGW5hHQSQh-19" value="" style="ellipse;whiteSpace=wrap;html=1;fontSize=12;" parent="1" vertex="1">
          <mxGeometry x="656.63" y="282.47999999999996" width="90" height="90" as="geometry" />
        </mxCell>
        <mxCell id="jqPWbYdJGxuGW5hHQSQh-5" style="rounded=0;orthogonalLoop=1;jettySize=auto;html=1;exitX=0.975;exitY=0.364;exitDx=0;exitDy=0;entryX=0;entryY=1;entryDx=0;entryDy=0;exitPerimeter=0;fontSize=12;" parent="1" source="jqPWbYdJGxuGW5hHQSQh-1" target="jqPWbYdJGxuGW5hHQSQh-2" edge="1">
          <mxGeometry relative="1" as="geometry" />
        </mxCell>
        <mxCell id="jqPWbYdJGxuGW5hHQSQh-9" value="0...9" style="edgeLabel;html=1;align=center;verticalAlign=middle;resizable=0;points=[];fontSize=12;fontStyle=1" parent="jqPWbYdJGxuGW5hHQSQh-5" vertex="1" connectable="0">
          <mxGeometry x="0.0032" y="2" relative="1" as="geometry">
            <mxPoint x="-13" as="offset" />
          </mxGeometry>
        </mxCell>
        <mxCell id="TVU8WiVwyzAPrq7MWqk_-24" style="rounded=0;orthogonalLoop=1;jettySize=auto;html=1;exitX=0.5;exitY=1;exitDx=0;exitDy=0;entryX=0;entryY=0.5;entryDx=0;entryDy=0;fontSize=12;" parent="1" source="jqPWbYdJGxuGW5hHQSQh-1" target="TVU8WiVwyzAPrq7MWqk_-45" edge="1">
          <mxGeometry relative="1" as="geometry" />
        </mxCell>
        <mxCell id="TVU8WiVwyzAPrq7MWqk_-25" value="a...z,A...Z" style="edgeLabel;html=1;align=center;verticalAlign=middle;resizable=0;points=[];fontSize=12;fontStyle=1" parent="TVU8WiVwyzAPrq7MWqk_-24" vertex="1" connectable="0">
          <mxGeometry x="0.1479" y="2" relative="1" as="geometry">
            <mxPoint as="offset" />
          </mxGeometry>
        </mxCell>
        <mxCell id="TVU8WiVwyzAPrq7MWqk_-27" style="rounded=0;orthogonalLoop=1;jettySize=auto;html=1;exitX=1;exitY=1;exitDx=0;exitDy=0;entryX=0;entryY=0.5;entryDx=0;entryDy=0;fontSize=12;" parent="1" source="jqPWbYdJGxuGW5hHQSQh-1" target="TVU8WiVwyzAPrq7MWqk_-26" edge="1">
          <mxGeometry relative="1" as="geometry" />
        </mxCell>
        <mxCell id="TVU8WiVwyzAPrq7MWqk_-28" value="_" style="edgeLabel;html=1;align=center;verticalAlign=middle;resizable=0;points=[];fontSize=12;fontStyle=1" parent="TVU8WiVwyzAPrq7MWqk_-27" vertex="1" connectable="0">
          <mxGeometry x="-0.0179" y="5" relative="1" as="geometry">
            <mxPoint x="1" y="2" as="offset" />
          </mxGeometry>
        </mxCell>
        <mxCell id="TVU8WiVwyzAPrq7MWqk_-38" style="rounded=0;orthogonalLoop=1;jettySize=auto;html=1;exitX=0;exitY=1;exitDx=0;exitDy=0;entryX=1;entryY=0.5;entryDx=0;entryDy=0;fontSize=12;" parent="1" source="jqPWbYdJGxuGW5hHQSQh-1" target="TVU8WiVwyzAPrq7MWqk_-37" edge="1">
          <mxGeometry relative="1" as="geometry" />
        </mxCell>
        <mxCell id="TVU8WiVwyzAPrq7MWqk_-40" value="&quot;" style="edgeLabel;html=1;align=center;verticalAlign=middle;resizable=0;points=[];fontSize=12;" parent="TVU8WiVwyzAPrq7MWqk_-38" vertex="1" connectable="0">
          <mxGeometry x="-0.1103" relative="1" as="geometry">
            <mxPoint as="offset" />
          </mxGeometry>
        </mxCell>
        <mxCell id="TVU8WiVwyzAPrq7MWqk_-80" style="rounded=0;orthogonalLoop=1;jettySize=auto;html=1;exitX=0.5;exitY=0;exitDx=0;exitDy=0;entryX=0.61;entryY=0.987;entryDx=0;entryDy=0;entryPerimeter=0;fontSize=12;" parent="1" target="TVU8WiVwyzAPrq7MWqk_-78" edge="1">
          <mxGeometry relative="1" as="geometry">
            <mxPoint x="560.8999999999999" y="354.21000000000004" as="sourcePoint" />
            <mxPoint x="525.0042712474617" y="113.28427124746167" as="targetPoint" />
          </mxGeometry>
        </mxCell>
        <mxCell id="TVU8WiVwyzAPrq7MWqk_-176" value="/" style="edgeLabel;html=1;align=center;verticalAlign=middle;resizable=0;points=[];fontSize=12;fontStyle=1" parent="TVU8WiVwyzAPrq7MWqk_-80" vertex="1" connectable="0">
          <mxGeometry x="0.0917" y="-1" relative="1" as="geometry">
            <mxPoint x="-2" y="-3" as="offset" />
          </mxGeometry>
        </mxCell>
        <mxCell id="TVU8WiVwyzAPrq7MWqk_-97" style="rounded=0;orthogonalLoop=1;jettySize=auto;html=1;exitX=0.5;exitY=1;exitDx=0;exitDy=0;entryX=0.5;entryY=0;entryDx=0;entryDy=0;fontSize=12;" parent="1" source="jqPWbYdJGxuGW5hHQSQh-1" target="TVU8WiVwyzAPrq7MWqk_-92" edge="1">
          <mxGeometry relative="1" as="geometry" />
        </mxCell>
        <mxCell id="TVU8WiVwyzAPrq7MWqk_-98" value="-" style="edgeLabel;html=1;align=center;verticalAlign=middle;resizable=0;points=[];fontSize=12;fontStyle=1" parent="TVU8WiVwyzAPrq7MWqk_-97" vertex="1" connectable="0">
          <mxGeometry x="-0.1259" y="2" relative="1" as="geometry">
            <mxPoint x="-6" y="7" as="offset" />
          </mxGeometry>
        </mxCell>
        <mxCell id="TVU8WiVwyzAPrq7MWqk_-99" style="rounded=0;orthogonalLoop=1;jettySize=auto;html=1;exitX=0.5;exitY=1;exitDx=0;exitDy=0;entryX=0.5;entryY=0;entryDx=0;entryDy=0;fontSize=12;" parent="1" source="jqPWbYdJGxuGW5hHQSQh-1" target="TVU8WiVwyzAPrq7MWqk_-93" edge="1">
          <mxGeometry relative="1" as="geometry" />
        </mxCell>
        <mxCell id="TVU8WiVwyzAPrq7MWqk_-100" value="+" style="edgeLabel;html=1;align=center;verticalAlign=middle;resizable=0;points=[];fontSize=12;fontStyle=1" parent="TVU8WiVwyzAPrq7MWqk_-99" vertex="1" connectable="0">
          <mxGeometry x="-0.0725" relative="1" as="geometry">
            <mxPoint as="offset" />
          </mxGeometry>
        </mxCell>
        <mxCell id="TVU8WiVwyzAPrq7MWqk_-101" style="rounded=0;orthogonalLoop=1;jettySize=auto;html=1;exitX=0.5;exitY=1;exitDx=0;exitDy=0;entryX=0.5;entryY=0;entryDx=0;entryDy=0;fontSize=12;" parent="1" source="jqPWbYdJGxuGW5hHQSQh-1" target="TVU8WiVwyzAPrq7MWqk_-88" edge="1">
          <mxGeometry relative="1" as="geometry" />
        </mxCell>
        <mxCell id="TVU8WiVwyzAPrq7MWqk_-102" value=":" style="edgeLabel;html=1;align=center;verticalAlign=middle;resizable=0;points=[];fontSize=12;fontStyle=1" parent="TVU8WiVwyzAPrq7MWqk_-101" vertex="1" connectable="0">
          <mxGeometry x="-0.0806" y="-3" relative="1" as="geometry">
            <mxPoint x="7" y="20" as="offset" />
          </mxGeometry>
        </mxCell>
        <mxCell id="TVU8WiVwyzAPrq7MWqk_-104" style="rounded=0;orthogonalLoop=1;jettySize=auto;html=1;exitX=0.5;exitY=1;exitDx=0;exitDy=0;entryX=0.5;entryY=0;entryDx=0;entryDy=0;fontSize=12;" parent="1" source="jqPWbYdJGxuGW5hHQSQh-1" target="TVU8WiVwyzAPrq7MWqk_-89" edge="1">
          <mxGeometry relative="1" as="geometry" />
        </mxCell>
        <mxCell id="TVU8WiVwyzAPrq7MWqk_-105" value="(" style="edgeLabel;html=1;align=center;verticalAlign=middle;resizable=0;points=[];fontSize=12;fontStyle=1" parent="TVU8WiVwyzAPrq7MWqk_-104" vertex="1" connectable="0">
          <mxGeometry x="0.0794" y="2" relative="1" as="geometry">
            <mxPoint y="11" as="offset" />
          </mxGeometry>
        </mxCell>
        <mxCell id="TVU8WiVwyzAPrq7MWqk_-149" style="rounded=0;orthogonalLoop=1;jettySize=auto;html=1;exitX=0.5;exitY=1;exitDx=0;exitDy=0;entryX=0;entryY=0;entryDx=0;entryDy=0;fontSize=12;" parent="1" source="jqPWbYdJGxuGW5hHQSQh-1" target="TVU8WiVwyzAPrq7MWqk_-148" edge="1">
          <mxGeometry relative="1" as="geometry" />
        </mxCell>
        <mxCell id="TVU8WiVwyzAPrq7MWqk_-150" value="," style="edgeLabel;html=1;align=center;verticalAlign=middle;resizable=0;points=[];fontSize=12;fontStyle=1" parent="TVU8WiVwyzAPrq7MWqk_-149" vertex="1" connectable="0">
          <mxGeometry x="0.0851" y="-1" relative="1" as="geometry">
            <mxPoint as="offset" />
          </mxGeometry>
        </mxCell>
        <mxCell id="TVU8WiVwyzAPrq7MWqk_-154" style="rounded=0;orthogonalLoop=1;jettySize=auto;html=1;exitX=0.5;exitY=1;exitDx=0;exitDy=0;entryX=0;entryY=0;entryDx=0;entryDy=0;fontSize=12;" parent="1" source="jqPWbYdJGxuGW5hHQSQh-1" target="TVU8WiVwyzAPrq7MWqk_-153" edge="1">
          <mxGeometry relative="1" as="geometry" />
        </mxCell>
        <mxCell id="TVU8WiVwyzAPrq7MWqk_-155" value="=" style="edgeLabel;html=1;align=center;verticalAlign=middle;resizable=0;points=[];fontSize=12;fontStyle=1" parent="TVU8WiVwyzAPrq7MWqk_-154" vertex="1" connectable="0">
          <mxGeometry x="0.0273" y="1" relative="1" as="geometry">
            <mxPoint as="offset" />
          </mxGeometry>
        </mxCell>
        <mxCell id="TVU8WiVwyzAPrq7MWqk_-164" style="rounded=0;orthogonalLoop=1;jettySize=auto;html=1;exitX=0.5;exitY=1;exitDx=0;exitDy=0;entryX=0.5;entryY=0;entryDx=0;entryDy=0;fontSize=12;" parent="1" source="jqPWbYdJGxuGW5hHQSQh-1" target="TVU8WiVwyzAPrq7MWqk_-91" edge="1">
          <mxGeometry relative="1" as="geometry" />
        </mxCell>
        <mxCell id="TVU8WiVwyzAPrq7MWqk_-165" value=")" style="edgeLabel;html=1;align=center;verticalAlign=middle;resizable=0;points=[];fontSize=12;fontStyle=1" parent="TVU8WiVwyzAPrq7MWqk_-164" vertex="1" connectable="0">
          <mxGeometry x="0.1102" y="-1" relative="1" as="geometry">
            <mxPoint as="offset" />
          </mxGeometry>
        </mxCell>
        <mxCell id="TVU8WiVwyzAPrq7MWqk_-166" style="rounded=0;orthogonalLoop=1;jettySize=auto;html=1;exitX=0.5;exitY=1;exitDx=0;exitDy=0;entryX=0;entryY=0;entryDx=0;entryDy=0;fontSize=12;" parent="1" source="jqPWbYdJGxuGW5hHQSQh-1" target="TVU8WiVwyzAPrq7MWqk_-163" edge="1">
          <mxGeometry relative="1" as="geometry" />
        </mxCell>
        <mxCell id="TVU8WiVwyzAPrq7MWqk_-167" value="!" style="edgeLabel;html=1;align=center;verticalAlign=middle;resizable=0;points=[];fontSize=12;fontStyle=1" parent="TVU8WiVwyzAPrq7MWqk_-166" vertex="1" connectable="0">
          <mxGeometry x="0.1568" y="2" relative="1" as="geometry">
            <mxPoint as="offset" />
          </mxGeometry>
        </mxCell>
        <mxCell id="TVU8WiVwyzAPrq7MWqk_-173" style="rounded=0;orthogonalLoop=1;jettySize=auto;html=1;exitX=0.5;exitY=1;exitDx=0;exitDy=0;entryX=0.5;entryY=0;entryDx=0;entryDy=0;fontSize=12;" parent="1" source="jqPWbYdJGxuGW5hHQSQh-1" target="TVU8WiVwyzAPrq7MWqk_-171" edge="1">
          <mxGeometry relative="1" as="geometry" />
        </mxCell>
        <mxCell id="TVU8WiVwyzAPrq7MWqk_-174" value="*" style="edgeLabel;html=1;align=center;verticalAlign=middle;resizable=0;points=[];fontSize=12;fontStyle=1" parent="TVU8WiVwyzAPrq7MWqk_-173" vertex="1" connectable="0">
          <mxGeometry x="0.0947" y="-1" relative="1" as="geometry">
            <mxPoint as="offset" />
          </mxGeometry>
        </mxCell>
        <mxCell id="TVU8WiVwyzAPrq7MWqk_-181" value="&amp;gt;" style="rounded=0;orthogonalLoop=1;jettySize=auto;html=1;exitX=0.5;exitY=1;exitDx=0;exitDy=0;entryX=0.5;entryY=0;entryDx=0;entryDy=0;fontSize=12;fontStyle=1" parent="1" source="jqPWbYdJGxuGW5hHQSQh-1" target="TVU8WiVwyzAPrq7MWqk_-178" edge="1">
          <mxGeometry relative="1" as="geometry" />
        </mxCell>
        <mxCell id="TVU8WiVwyzAPrq7MWqk_-182" style="rounded=0;orthogonalLoop=1;jettySize=auto;html=1;exitX=0.5;exitY=1;exitDx=0;exitDy=0;entryX=0.5;entryY=0;entryDx=0;entryDy=0;fontSize=12;" parent="1" source="jqPWbYdJGxuGW5hHQSQh-1" target="TVU8WiVwyzAPrq7MWqk_-180" edge="1">
          <mxGeometry relative="1" as="geometry" />
        </mxCell>
        <mxCell id="TVU8WiVwyzAPrq7MWqk_-183" value="&amp;lt;" style="edgeLabel;html=1;align=center;verticalAlign=middle;resizable=0;points=[];fontSize=12;fontStyle=1" parent="TVU8WiVwyzAPrq7MWqk_-182" vertex="1" connectable="0">
          <mxGeometry x="-0.0868" y="2" relative="1" as="geometry">
            <mxPoint y="-1" as="offset" />
          </mxGeometry>
        </mxCell>
        <mxCell id="TVU8WiVwyzAPrq7MWqk_-197" style="rounded=0;orthogonalLoop=1;jettySize=auto;html=1;exitX=0.5;exitY=1;exitDx=0;exitDy=0;entryX=0.029;entryY=0.33;entryDx=0;entryDy=0;fontSize=12;entryPerimeter=0;" parent="1" source="jqPWbYdJGxuGW5hHQSQh-1" target="TVU8WiVwyzAPrq7MWqk_-194" edge="1">
          <mxGeometry relative="1" as="geometry" />
        </mxCell>
        <mxCell id="TVU8WiVwyzAPrq7MWqk_-198" value="?" style="edgeLabel;html=1;align=center;verticalAlign=middle;resizable=0;points=[];fontSize=12;fontStyle=1" parent="TVU8WiVwyzAPrq7MWqk_-197" vertex="1" connectable="0">
          <mxGeometry x="0.1084" y="4" relative="1" as="geometry">
            <mxPoint as="offset" />
          </mxGeometry>
        </mxCell>
        <mxCell id="jqPWbYdJGxuGW5hHQSQh-1" value="&lt;font size=&quot;1&quot; style=&quot;&quot;&gt;&lt;b style=&quot;font-size: 14px;&quot;&gt;Start&lt;/b&gt;&lt;/font&gt;" style="ellipse;whiteSpace=wrap;html=1;aspect=fixed;fontSize=12;" parent="1" vertex="1">
          <mxGeometry x="486.68" y="354.21" width="145" height="145" as="geometry" />
        </mxCell>
        <mxCell id="jqPWbYdJGxuGW5hHQSQh-6" style="rounded=0;orthogonalLoop=1;jettySize=auto;html=1;exitX=0.5;exitY=0;exitDx=0;exitDy=0;entryX=0.5;entryY=1;entryDx=0;entryDy=0;fontSize=12;" parent="1" source="jqPWbYdJGxuGW5hHQSQh-2" target="jqPWbYdJGxuGW5hHQSQh-3" edge="1">
          <mxGeometry relative="1" as="geometry" />
        </mxCell>
        <mxCell id="jqPWbYdJGxuGW5hHQSQh-10" value="." style="edgeLabel;html=1;align=center;verticalAlign=middle;resizable=0;points=[];fontSize=12;fontStyle=1" parent="jqPWbYdJGxuGW5hHQSQh-6" vertex="1" connectable="0">
          <mxGeometry x="-0.057" relative="1" as="geometry">
            <mxPoint x="6" y="-7" as="offset" />
          </mxGeometry>
        </mxCell>
        <mxCell id="jqPWbYdJGxuGW5hHQSQh-2" value="&lt;b&gt;Int&lt;/b&gt;" style="ellipse;whiteSpace=wrap;html=1;aspect=fixed;fontSize=12;" parent="1" vertex="1">
          <mxGeometry x="661.63" y="287.47999999999996" width="80" height="80" as="geometry" />
        </mxCell>
        <mxCell id="jqPWbYdJGxuGW5hHQSQh-7" style="rounded=0;orthogonalLoop=1;jettySize=auto;html=1;exitX=1;exitY=0;exitDx=0;exitDy=0;fontSize=12;" parent="1" source="jqPWbYdJGxuGW5hHQSQh-3" target="jqPWbYdJGxuGW5hHQSQh-4" edge="1">
          <mxGeometry relative="1" as="geometry" />
        </mxCell>
        <mxCell id="jqPWbYdJGxuGW5hHQSQh-11" value="0...9" style="edgeLabel;html=1;align=center;verticalAlign=middle;resizable=0;points=[];fontSize=12;fontStyle=1" parent="jqPWbYdJGxuGW5hHQSQh-7" vertex="1" connectable="0">
          <mxGeometry x="0.1439" y="2" relative="1" as="geometry">
            <mxPoint as="offset" />
          </mxGeometry>
        </mxCell>
        <mxCell id="jqPWbYdJGxuGW5hHQSQh-3" value="Float_dot" style="ellipse;whiteSpace=wrap;html=1;aspect=fixed;fontSize=12;" parent="1" vertex="1">
          <mxGeometry x="661.63" y="120" width="80" height="80" as="geometry" />
        </mxCell>
        <mxCell id="jqPWbYdJGxuGW5hHQSQh-12" style="edgeStyle=orthogonalEdgeStyle;rounded=0;orthogonalLoop=1;jettySize=auto;html=1;exitX=0;exitY=0.5;exitDx=0;exitDy=0;entryX=0.238;entryY=0.031;entryDx=0;entryDy=0;curved=1;entryPerimeter=0;fontSize=12;" parent="1" source="jqPWbYdJGxuGW5hHQSQh-2" target="jqPWbYdJGxuGW5hHQSQh-2" edge="1">
          <mxGeometry relative="1" as="geometry">
            <Array as="points">
              <mxPoint x="631.63" y="327.97999999999996" />
              <mxPoint x="631.63" y="269.98" />
              <mxPoint x="680.63" y="269.98" />
            </Array>
          </mxGeometry>
        </mxCell>
        <mxCell id="jqPWbYdJGxuGW5hHQSQh-13" value="0...9" style="edgeLabel;html=1;align=center;verticalAlign=middle;resizable=0;points=[];fontSize=12;fontStyle=1" parent="jqPWbYdJGxuGW5hHQSQh-12" vertex="1" connectable="0">
          <mxGeometry x="0.0404" y="-4" relative="1" as="geometry">
            <mxPoint x="-2" y="-14" as="offset" />
          </mxGeometry>
        </mxCell>
        <mxCell id="jqPWbYdJGxuGW5hHQSQh-17" value="" style="group;fontSize=12;fontStyle=1" parent="1" vertex="1" connectable="0">
          <mxGeometry x="770" width="90" height="90" as="geometry" />
        </mxCell>
        <mxCell id="jqPWbYdJGxuGW5hHQSQh-14" value="" style="ellipse;whiteSpace=wrap;html=1;fontSize=12;" parent="jqPWbYdJGxuGW5hHQSQh-17" vertex="1">
          <mxGeometry width="90" height="90" as="geometry" />
        </mxCell>
        <mxCell id="jqPWbYdJGxuGW5hHQSQh-4" value="&lt;b&gt;Float&lt;/b&gt;" style="ellipse;whiteSpace=wrap;html=1;aspect=fixed;fillStyle=auto;strokeColor=default;gradientColor=none;strokeWidth=1;perimeterSpacing=1;shadow=0;fontSize=12;" parent="jqPWbYdJGxuGW5hHQSQh-17" vertex="1">
          <mxGeometry x="5" y="5" width="80" height="80" as="geometry" />
        </mxCell>
        <mxCell id="TVU8WiVwyzAPrq7MWqk_-87" value="&lt;b&gt;0...9&lt;/b&gt;" style="edgeStyle=orthogonalEdgeStyle;rounded=0;orthogonalLoop=1;jettySize=auto;html=1;exitX=1;exitY=0.5;exitDx=0;exitDy=0;entryX=1;entryY=0;entryDx=0;entryDy=0;curved=1;fontSize=12;" parent="jqPWbYdJGxuGW5hHQSQh-17" source="jqPWbYdJGxuGW5hHQSQh-14" target="jqPWbYdJGxuGW5hHQSQh-14" edge="1">
          <mxGeometry relative="1" as="geometry">
            <Array as="points">
              <mxPoint x="125" y="45" />
              <mxPoint x="125" />
              <mxPoint x="77" />
            </Array>
          </mxGeometry>
        </mxCell>
        <mxCell id="TVU8WiVwyzAPrq7MWqk_-14" style="rounded=0;orthogonalLoop=1;jettySize=auto;html=1;entryX=0;entryY=0.5;entryDx=0;entryDy=0;fontSize=12;exitX=1;exitY=1;exitDx=0;exitDy=0;" parent="1" source="TVU8WiVwyzAPrq7MWqk_-4" target="TVU8WiVwyzAPrq7MWqk_-5" edge="1">
          <mxGeometry relative="1" as="geometry">
            <mxPoint x="855" y="230" as="sourcePoint" />
          </mxGeometry>
        </mxCell>
        <mxCell id="TVU8WiVwyzAPrq7MWqk_-15" value="+/-" style="edgeLabel;html=1;align=center;verticalAlign=middle;resizable=0;points=[];fontSize=12;fontStyle=1" parent="TVU8WiVwyzAPrq7MWqk_-14" vertex="1" connectable="0">
          <mxGeometry x="-0.1323" y="-2" relative="1" as="geometry">
            <mxPoint x="-4" y="-2" as="offset" />
          </mxGeometry>
        </mxCell>
        <mxCell id="TVU8WiVwyzAPrq7MWqk_-18" style="rounded=0;orthogonalLoop=1;jettySize=auto;html=1;exitX=1;exitY=0;exitDx=0;exitDy=0;entryX=0.033;entryY=0.69;entryDx=0;entryDy=0;fontSize=12;entryPerimeter=0;" parent="1" source="TVU8WiVwyzAPrq7MWqk_-4" target="TVU8WiVwyzAPrq7MWqk_-11" edge="1">
          <mxGeometry relative="1" as="geometry" />
        </mxCell>
        <mxCell id="TVU8WiVwyzAPrq7MWqk_-20" value="0...9" style="edgeLabel;html=1;align=center;verticalAlign=middle;resizable=0;points=[];fontSize=12;fontStyle=1" parent="TVU8WiVwyzAPrq7MWqk_-18" vertex="1" connectable="0">
          <mxGeometry x="-0.1733" relative="1" as="geometry">
            <mxPoint as="offset" />
          </mxGeometry>
        </mxCell>
        <mxCell id="TVU8WiVwyzAPrq7MWqk_-4" value="Expo_e" style="ellipse;whiteSpace=wrap;html=1;fontSize=12;" parent="1" vertex="1">
          <mxGeometry x="775" y="190" width="80" height="80" as="geometry" />
        </mxCell>
        <mxCell id="TVU8WiVwyzAPrq7MWqk_-16" style="rounded=0;orthogonalLoop=1;jettySize=auto;html=1;exitX=0.5;exitY=0;exitDx=0;exitDy=0;fontSize=12;entryX=0.5;entryY=1;entryDx=0;entryDy=0;" parent="1" source="TVU8WiVwyzAPrq7MWqk_-5" target="TVU8WiVwyzAPrq7MWqk_-11" edge="1">
          <mxGeometry relative="1" as="geometry">
            <mxPoint x="1010" y="140" as="targetPoint" />
          </mxGeometry>
        </mxCell>
        <mxCell id="TVU8WiVwyzAPrq7MWqk_-17" value="0...9" style="edgeLabel;html=1;align=center;verticalAlign=middle;resizable=0;points=[];fontSize=12;fontStyle=1" parent="TVU8WiVwyzAPrq7MWqk_-16" vertex="1" connectable="0">
          <mxGeometry x="-0.0571" relative="1" as="geometry">
            <mxPoint as="offset" />
          </mxGeometry>
        </mxCell>
        <mxCell id="TVU8WiVwyzAPrq7MWqk_-5" value="Expo_sign" style="ellipse;whiteSpace=wrap;html=1;fontSize=12;" parent="1" vertex="1">
          <mxGeometry x="935" y="230" width="80" height="80" as="geometry" />
        </mxCell>
        <mxCell id="TVU8WiVwyzAPrq7MWqk_-21" style="edgeStyle=orthogonalEdgeStyle;rounded=0;orthogonalLoop=1;jettySize=auto;html=1;exitX=0;exitY=0;exitDx=0;exitDy=0;entryX=0;entryY=0.5;entryDx=0;entryDy=0;curved=1;fontSize=12;" parent="1" source="jqPWbYdJGxuGW5hHQSQh-1" target="jqPWbYdJGxuGW5hHQSQh-1" edge="1">
          <mxGeometry relative="1" as="geometry">
            <Array as="points">
              <mxPoint x="507.68" y="354.21" />
              <mxPoint x="426.68" y="354.21" />
              <mxPoint x="426.68" y="427.21" />
            </Array>
          </mxGeometry>
        </mxCell>
        <mxCell id="TVU8WiVwyzAPrq7MWqk_-22" value="Whitespace/EOL" style="edgeLabel;html=1;align=center;verticalAlign=middle;resizable=0;points=[];fontSize=12;fontStyle=1" parent="TVU8WiVwyzAPrq7MWqk_-21" vertex="1" connectable="0">
          <mxGeometry x="-0.1482" y="5" relative="1" as="geometry">
            <mxPoint y="-15" as="offset" />
          </mxGeometry>
        </mxCell>
        <mxCell id="TVU8WiVwyzAPrq7MWqk_-23" value="&lt;b&gt;Identifier&lt;/b&gt;" style="ellipse;whiteSpace=wrap;html=1;fontSize=12;" parent="1" vertex="1">
          <mxGeometry x="855" y="450.05" width="80" height="80" as="geometry" />
        </mxCell>
        <mxCell id="TVU8WiVwyzAPrq7MWqk_-30" style="rounded=0;orthogonalLoop=1;jettySize=auto;html=1;exitX=0.975;exitY=0.803;exitDx=0;exitDy=0;entryX=0.967;entryY=0.322;entryDx=0;entryDy=0;entryPerimeter=0;edgeStyle=orthogonalEdgeStyle;curved=1;exitPerimeter=0;fontSize=12;" parent="1" source="TVU8WiVwyzAPrq7MWqk_-26" target="TVU8WiVwyzAPrq7MWqk_-45" edge="1">
          <mxGeometry relative="1" as="geometry">
            <Array as="points">
              <mxPoint x="970" y="403" />
              <mxPoint x="970" y="474" />
            </Array>
          </mxGeometry>
        </mxCell>
        <mxCell id="TVU8WiVwyzAPrq7MWqk_-31" value="a...z,A...Z,0...9,_" style="edgeLabel;html=1;align=center;verticalAlign=middle;resizable=0;points=[];fontSize=12;fontStyle=1" parent="TVU8WiVwyzAPrq7MWqk_-30" vertex="1" connectable="0">
          <mxGeometry x="-0.1807" y="-1" relative="1" as="geometry">
            <mxPoint x="-1" y="23" as="offset" />
          </mxGeometry>
        </mxCell>
        <mxCell id="TVU8WiVwyzAPrq7MWqk_-26" value="&lt;b&gt;Underscore&lt;/b&gt;" style="ellipse;whiteSpace=wrap;html=1;fontSize=12;" parent="1" vertex="1">
          <mxGeometry x="835" y="338.94" width="80" height="80" as="geometry" />
        </mxCell>
        <mxCell id="TVU8WiVwyzAPrq7MWqk_-32" style="edgeStyle=orthogonalEdgeStyle;rounded=0;orthogonalLoop=1;jettySize=auto;html=1;exitX=0.5;exitY=1;exitDx=0;exitDy=0;entryX=0.033;entryY=0.722;entryDx=0;entryDy=0;curved=1;entryPerimeter=0;fontSize=12;" parent="1" source="TVU8WiVwyzAPrq7MWqk_-23" target="TVU8WiVwyzAPrq7MWqk_-45" edge="1">
          <mxGeometry relative="1" as="geometry">
            <Array as="points">
              <mxPoint x="895" y="560.05" />
              <mxPoint x="830" y="560.05" />
              <mxPoint x="830" y="510.05" />
            </Array>
          </mxGeometry>
        </mxCell>
        <mxCell id="TVU8WiVwyzAPrq7MWqk_-33" value="a...z,A...Z,0...9,_" style="edgeLabel;html=1;align=center;verticalAlign=middle;resizable=0;points=[];fontSize=12;fontStyle=1" parent="TVU8WiVwyzAPrq7MWqk_-32" vertex="1" connectable="0">
          <mxGeometry x="-0.0935" y="1" relative="1" as="geometry">
            <mxPoint x="5" as="offset" />
          </mxGeometry>
        </mxCell>
        <mxCell id="TVU8WiVwyzAPrq7MWqk_-34" style="rounded=0;orthogonalLoop=1;jettySize=auto;html=1;exitX=0.5;exitY=1;exitDx=0;exitDy=0;entryX=0.5;entryY=0;entryDx=0;entryDy=0;fontSize=12;" parent="1" source="jqPWbYdJGxuGW5hHQSQh-14" target="TVU8WiVwyzAPrq7MWqk_-4" edge="1">
          <mxGeometry relative="1" as="geometry" />
        </mxCell>
        <mxCell id="TVU8WiVwyzAPrq7MWqk_-36" value="E/e" style="edgeLabel;html=1;align=center;verticalAlign=middle;resizable=0;points=[];fontSize=12;fontStyle=1" parent="TVU8WiVwyzAPrq7MWqk_-34" vertex="1" connectable="0">
          <mxGeometry x="-0.0877" y="2" relative="1" as="geometry">
            <mxPoint as="offset" />
          </mxGeometry>
        </mxCell>
        <mxCell id="TVU8WiVwyzAPrq7MWqk_-48" style="rounded=0;orthogonalLoop=1;jettySize=auto;html=1;exitX=0;exitY=0.5;exitDx=0;exitDy=0;entryX=1;entryY=0.5;entryDx=0;entryDy=0;fontSize=12;" parent="1" source="TVU8WiVwyzAPrq7MWqk_-37" target="TVU8WiVwyzAPrq7MWqk_-42" edge="1">
          <mxGeometry relative="1" as="geometry" />
        </mxCell>
        <mxCell id="TVU8WiVwyzAPrq7MWqk_-49" value="&quot;" style="edgeLabel;html=1;align=center;verticalAlign=middle;resizable=0;points=[];fontSize=12;" parent="TVU8WiVwyzAPrq7MWqk_-48" vertex="1" connectable="0">
          <mxGeometry x="0.0019" y="-2" relative="1" as="geometry">
            <mxPoint y="-1" as="offset" />
          </mxGeometry>
        </mxCell>
        <mxCell id="TVU8WiVwyzAPrq7MWqk_-53" style="rounded=0;orthogonalLoop=1;jettySize=auto;html=1;exitX=0.5;exitY=0;exitDx=0;exitDy=0;entryX=0;entryY=0;entryDx=0;entryDy=0;edgeStyle=orthogonalEdgeStyle;curved=1;fontSize=12;" parent="1" source="TVU8WiVwyzAPrq7MWqk_-37" target="TVU8WiVwyzAPrq7MWqk_-37" edge="1">
          <mxGeometry relative="1" as="geometry">
            <mxPoint x="278.2842712474619" y="358.284271247462" as="targetPoint" />
            <Array as="points">
              <mxPoint x="340" y="390" />
              <mxPoint x="300" y="390" />
              <mxPoint x="300" y="457" />
            </Array>
          </mxGeometry>
        </mxCell>
        <mxCell id="TVU8WiVwyzAPrq7MWqk_-55" value="ASCII&amp;lt;32-255&amp;gt;" style="edgeLabel;html=1;align=center;verticalAlign=middle;resizable=0;points=[];fontSize=12;fontStyle=1" parent="TVU8WiVwyzAPrq7MWqk_-53" vertex="1" connectable="0">
          <mxGeometry x="0.0376" y="-1" relative="1" as="geometry">
            <mxPoint x="15" as="offset" />
          </mxGeometry>
        </mxCell>
        <mxCell id="TVU8WiVwyzAPrq7MWqk_-57" style="rounded=0;orthogonalLoop=1;jettySize=auto;html=1;exitX=0;exitY=1;exitDx=0;exitDy=0;entryX=1;entryY=0;entryDx=0;entryDy=0;fontSize=12;" parent="1" source="TVU8WiVwyzAPrq7MWqk_-37" target="TVU8WiVwyzAPrq7MWqk_-56" edge="1">
          <mxGeometry relative="1" as="geometry" />
        </mxCell>
        <mxCell id="TVU8WiVwyzAPrq7MWqk_-58" value="\" style="edgeLabel;html=1;align=center;verticalAlign=middle;resizable=0;points=[];fontSize=12;fontStyle=1" parent="TVU8WiVwyzAPrq7MWqk_-57" vertex="1" connectable="0">
          <mxGeometry x="0.0639" y="3" relative="1" as="geometry">
            <mxPoint x="1" y="-13" as="offset" />
          </mxGeometry>
        </mxCell>
        <mxCell id="TVU8WiVwyzAPrq7MWqk_-37" value="String" style="ellipse;whiteSpace=wrap;html=1;fontSize=12;" parent="1" vertex="1">
          <mxGeometry x="310" y="435" width="80" height="80" as="geometry" />
        </mxCell>
        <mxCell id="TVU8WiVwyzAPrq7MWqk_-43" value="" style="group;fontSize=12;" parent="1" vertex="1" connectable="0">
          <mxGeometry x="140" y="350" width="90" height="90" as="geometry" />
        </mxCell>
        <mxCell id="TVU8WiVwyzAPrq7MWqk_-42" value="" style="ellipse;whiteSpace=wrap;html=1;fontSize=12;" parent="TVU8WiVwyzAPrq7MWqk_-43" vertex="1">
          <mxGeometry width="90" height="90" as="geometry" />
        </mxCell>
        <mxCell id="TVU8WiVwyzAPrq7MWqk_-41" value="&lt;b&gt;String_done&lt;/b&gt;" style="ellipse;whiteSpace=wrap;html=1;fontSize=12;" parent="TVU8WiVwyzAPrq7MWqk_-43" vertex="1">
          <mxGeometry x="5" y="5" width="80" height="80" as="geometry" />
        </mxCell>
        <mxCell id="TVU8WiVwyzAPrq7MWqk_-44" value="" style="group;fontSize=12;" parent="1" vertex="1" connectable="0">
          <mxGeometry x="930" y="39.939999999999976" width="90" height="90" as="geometry" />
        </mxCell>
        <mxCell id="TVU8WiVwyzAPrq7MWqk_-11" value="" style="ellipse;whiteSpace=wrap;html=1;fontSize=12;" parent="TVU8WiVwyzAPrq7MWqk_-44" vertex="1">
          <mxGeometry width="90" height="90" as="geometry" />
        </mxCell>
        <mxCell id="TVU8WiVwyzAPrq7MWqk_-85" style="edgeStyle=orthogonalEdgeStyle;rounded=0;orthogonalLoop=1;jettySize=auto;html=1;exitX=1;exitY=0.5;exitDx=0;exitDy=0;entryX=1;entryY=0;entryDx=0;entryDy=0;curved=1;fontSize=12;" parent="TVU8WiVwyzAPrq7MWqk_-44" source="TVU8WiVwyzAPrq7MWqk_-6" target="TVU8WiVwyzAPrq7MWqk_-11" edge="1">
          <mxGeometry relative="1" as="geometry">
            <Array as="points">
              <mxPoint x="135" y="45" />
              <mxPoint x="135" y="-5" />
              <mxPoint x="77" y="-5" />
            </Array>
          </mxGeometry>
        </mxCell>
        <mxCell id="TVU8WiVwyzAPrq7MWqk_-86" value="0...9" style="edgeLabel;html=1;align=center;verticalAlign=middle;resizable=0;points=[];fontSize=12;fontStyle=1" parent="TVU8WiVwyzAPrq7MWqk_-85" vertex="1" connectable="0">
          <mxGeometry x="0.0231" y="5" relative="1" as="geometry">
            <mxPoint as="offset" />
          </mxGeometry>
        </mxCell>
        <mxCell id="TVU8WiVwyzAPrq7MWqk_-6" value="&lt;b&gt;Exponent&lt;/b&gt;" style="ellipse;whiteSpace=wrap;html=1;fontSize=12;" parent="TVU8WiVwyzAPrq7MWqk_-44" vertex="1">
          <mxGeometry x="5" y="5" width="80" height="80" as="geometry" />
        </mxCell>
        <mxCell id="TVU8WiVwyzAPrq7MWqk_-59" style="rounded=0;orthogonalLoop=1;jettySize=auto;html=1;entryX=0.5;entryY=1;entryDx=0;entryDy=0;edgeStyle=orthogonalEdgeStyle;curved=1;exitX=1;exitY=1;exitDx=0;exitDy=0;fontSize=12;" parent="1" source="TVU8WiVwyzAPrq7MWqk_-56" target="TVU8WiVwyzAPrq7MWqk_-37" edge="1">
          <mxGeometry relative="1" as="geometry">
            <Array as="points">
              <mxPoint x="350" y="548" />
            </Array>
            <mxPoint x="190" y="485" as="sourcePoint" />
          </mxGeometry>
        </mxCell>
        <mxCell id="TVU8WiVwyzAPrq7MWqk_-60" value="&quot;,n,r,t,\" style="edgeLabel;html=1;align=center;verticalAlign=middle;resizable=0;points=[];fontSize=12;fontStyle=1" parent="TVU8WiVwyzAPrq7MWqk_-59" vertex="1" connectable="0">
          <mxGeometry x="0.2143" y="8" relative="1" as="geometry">
            <mxPoint x="-17" as="offset" />
          </mxGeometry>
        </mxCell>
        <mxCell id="TVU8WiVwyzAPrq7MWqk_-62" style="rounded=0;orthogonalLoop=1;jettySize=auto;html=1;exitX=0;exitY=1;exitDx=0;exitDy=0;entryX=1;entryY=0;entryDx=0;entryDy=0;fontSize=12;" parent="1" source="TVU8WiVwyzAPrq7MWqk_-56" target="TVU8WiVwyzAPrq7MWqk_-61" edge="1">
          <mxGeometry relative="1" as="geometry" />
        </mxCell>
        <mxCell id="TVU8WiVwyzAPrq7MWqk_-63" value="{" style="edgeLabel;html=1;align=center;verticalAlign=middle;resizable=0;points=[];fontSize=12;" parent="TVU8WiVwyzAPrq7MWqk_-62" vertex="1" connectable="0">
          <mxGeometry x="-0.0502" y="-2" relative="1" as="geometry">
            <mxPoint as="offset" />
          </mxGeometry>
        </mxCell>
        <mxCell id="TVU8WiVwyzAPrq7MWqk_-56" value="Backslash" style="ellipse;whiteSpace=wrap;html=1;fontSize=12;" parent="1" vertex="1">
          <mxGeometry x="185" y="480" width="80" height="80" as="geometry" />
        </mxCell>
        <mxCell id="TVU8WiVwyzAPrq7MWqk_-66" style="rounded=0;orthogonalLoop=1;jettySize=auto;html=1;exitX=0;exitY=1;exitDx=0;exitDy=0;entryX=0.5;entryY=0;entryDx=0;entryDy=0;fontSize=12;" parent="1" source="TVU8WiVwyzAPrq7MWqk_-61" target="TVU8WiVwyzAPrq7MWqk_-64" edge="1">
          <mxGeometry relative="1" as="geometry" />
        </mxCell>
        <mxCell id="TVU8WiVwyzAPrq7MWqk_-68" value="0...9,a...f,A...F" style="edgeLabel;html=1;align=center;verticalAlign=middle;resizable=0;points=[];fontSize=12;fontStyle=1" parent="TVU8WiVwyzAPrq7MWqk_-66" vertex="1" connectable="0">
          <mxGeometry x="-0.0734" y="-1" relative="1" as="geometry">
            <mxPoint as="offset" />
          </mxGeometry>
        </mxCell>
        <mxCell id="TVU8WiVwyzAPrq7MWqk_-61" value="Hex" style="ellipse;whiteSpace=wrap;html=1;fontSize=12;" parent="1" vertex="1">
          <mxGeometry x="90" y="580" width="80" height="80" as="geometry" />
        </mxCell>
        <mxCell id="TVU8WiVwyzAPrq7MWqk_-75" style="edgeStyle=orthogonalEdgeStyle;rounded=0;orthogonalLoop=1;jettySize=auto;html=1;exitX=1;exitY=0.5;exitDx=0;exitDy=0;entryX=1;entryY=1;entryDx=0;entryDy=0;curved=1;fontSize=12;" parent="1" source="TVU8WiVwyzAPrq7MWqk_-64" target="TVU8WiVwyzAPrq7MWqk_-37" edge="1">
          <mxGeometry relative="1" as="geometry">
            <Array as="points">
              <mxPoint x="378" y="730" />
            </Array>
          </mxGeometry>
        </mxCell>
        <mxCell id="TVU8WiVwyzAPrq7MWqk_-76" value="}" style="edgeLabel;html=1;align=center;verticalAlign=middle;resizable=0;points=[];fontSize=12;fontStyle=1" parent="TVU8WiVwyzAPrq7MWqk_-75" vertex="1" connectable="0">
          <mxGeometry x="0.1182" y="1" relative="1" as="geometry">
            <mxPoint x="-82" y="-22" as="offset" />
          </mxGeometry>
        </mxCell>
        <mxCell id="TVU8WiVwyzAPrq7MWqk_-64" value="Hex_number" style="ellipse;whiteSpace=wrap;html=1;fontSize=12;" parent="1" vertex="1">
          <mxGeometry x="50" y="690.04" width="80" height="80" as="geometry" />
        </mxCell>
        <mxCell id="TVU8WiVwyzAPrq7MWqk_-73" style="edgeStyle=orthogonalEdgeStyle;rounded=0;orthogonalLoop=1;jettySize=auto;html=1;exitX=0.5;exitY=1;exitDx=0;exitDy=0;entryX=1;entryY=1;entryDx=0;entryDy=0;curved=1;fontSize=12;" parent="1" source="TVU8WiVwyzAPrq7MWqk_-64" target="TVU8WiVwyzAPrq7MWqk_-64" edge="1">
          <mxGeometry relative="1" as="geometry">
            <Array as="points">
              <mxPoint x="90" y="809.99" />
              <mxPoint x="118" y="809.99" />
            </Array>
          </mxGeometry>
        </mxCell>
        <mxCell id="TVU8WiVwyzAPrq7MWqk_-74" value="0...9,a...f,A...F" style="edgeLabel;html=1;align=center;verticalAlign=middle;resizable=0;points=[];fontSize=12;fontStyle=1" parent="TVU8WiVwyzAPrq7MWqk_-73" vertex="1" connectable="0">
          <mxGeometry x="0.2445" y="3" relative="1" as="geometry">
            <mxPoint x="-17" y="12" as="offset" />
          </mxGeometry>
        </mxCell>
        <mxCell id="TVU8WiVwyzAPrq7MWqk_-79" value="" style="group;fontSize=12;" parent="1" vertex="1" connectable="0">
          <mxGeometry x="480" y="180" width="90" height="90" as="geometry" />
        </mxCell>
        <mxCell id="TVU8WiVwyzAPrq7MWqk_-78" value="" style="ellipse;whiteSpace=wrap;html=1;fontSize=12;" parent="TVU8WiVwyzAPrq7MWqk_-79" vertex="1">
          <mxGeometry width="90" height="90" as="geometry" />
        </mxCell>
        <mxCell id="TVU8WiVwyzAPrq7MWqk_-77" value="&lt;b&gt;Slash&lt;/b&gt;" style="ellipse;whiteSpace=wrap;html=1;fontSize=12;" parent="TVU8WiVwyzAPrq7MWqk_-79" vertex="1">
          <mxGeometry x="5" y="5" width="80" height="80" as="geometry" />
        </mxCell>
        <mxCell id="TVU8WiVwyzAPrq7MWqk_-138" style="edgeStyle=orthogonalEdgeStyle;rounded=0;orthogonalLoop=1;jettySize=auto;html=1;exitX=1;exitY=1;exitDx=0;exitDy=0;entryX=0.657;entryY=0.026;entryDx=0;entryDy=0;curved=1;entryPerimeter=0;fontSize=12;" parent="1" source="TVU8WiVwyzAPrq7MWqk_-82" target="jqPWbYdJGxuGW5hHQSQh-1" edge="1">
          <mxGeometry relative="1" as="geometry">
            <Array as="points">
              <mxPoint x="590" y="118" />
              <mxPoint x="590" y="358" />
            </Array>
          </mxGeometry>
        </mxCell>
        <mxCell id="TVU8WiVwyzAPrq7MWqk_-139" value="EOL" style="edgeLabel;html=1;align=center;verticalAlign=middle;resizable=0;points=[];fontSize=12;fontStyle=1" parent="TVU8WiVwyzAPrq7MWqk_-138" vertex="1" connectable="0">
          <mxGeometry x="-0.3015" relative="1" as="geometry">
            <mxPoint as="offset" />
          </mxGeometry>
        </mxCell>
        <mxCell id="TVU8WiVwyzAPrq7MWqk_-82" value="Line_comment" style="ellipse;whiteSpace=wrap;html=1;fontSize=12;" parent="1" vertex="1">
          <mxGeometry x="485" y="49.94000000000001" width="80" height="80" as="geometry" />
        </mxCell>
        <mxCell id="TVU8WiVwyzAPrq7MWqk_-83" style="rounded=0;orthogonalLoop=1;jettySize=auto;html=1;exitX=0.5;exitY=0;exitDx=0;exitDy=0;entryX=0.5;entryY=1;entryDx=0;entryDy=0;fontSize=12;" parent="1" source="TVU8WiVwyzAPrq7MWqk_-78" target="TVU8WiVwyzAPrq7MWqk_-82" edge="1">
          <mxGeometry relative="1" as="geometry" />
        </mxCell>
        <mxCell id="TVU8WiVwyzAPrq7MWqk_-84" value="/" style="edgeLabel;html=1;align=center;verticalAlign=middle;resizable=0;points=[];fontSize=12;" parent="TVU8WiVwyzAPrq7MWqk_-83" vertex="1" connectable="0">
          <mxGeometry x="0.029" y="-3" relative="1" as="geometry">
            <mxPoint x="-5" y="3" as="offset" />
          </mxGeometry>
        </mxCell>
        <mxCell id="TVU8WiVwyzAPrq7MWqk_-88" value="&lt;b&gt;colon&lt;/b&gt;" style="ellipse;whiteSpace=wrap;html=1;fontSize=12;" parent="1" vertex="1">
          <mxGeometry x="579.18" y="790.0500000000001" width="80" height="80" as="geometry" />
        </mxCell>
        <mxCell id="TVU8WiVwyzAPrq7MWqk_-89" value="&lt;b&gt;bracket_left&lt;/b&gt;" style="ellipse;whiteSpace=wrap;html=1;fontSize=12;" parent="1" vertex="1">
          <mxGeometry x="655" y="875.0500000000001" width="80" height="80" as="geometry" />
        </mxCell>
        <mxCell id="TVU8WiVwyzAPrq7MWqk_-91" value="&lt;b&gt;bracket_right&lt;/b&gt;" style="ellipse;whiteSpace=wrap;html=1;fontSize=12;" parent="1" vertex="1">
          <mxGeometry x="705" y="775.0500000000001" width="80" height="80" as="geometry" />
        </mxCell>
        <mxCell id="TVU8WiVwyzAPrq7MWqk_-96" style="rounded=0;orthogonalLoop=1;jettySize=auto;html=1;exitX=0.5;exitY=1;exitDx=0;exitDy=0;entryX=0.5;entryY=0;entryDx=0;entryDy=0;fontSize=12;" parent="1" source="TVU8WiVwyzAPrq7MWqk_-92" target="TVU8WiVwyzAPrq7MWqk_-95" edge="1">
          <mxGeometry relative="1" as="geometry" />
        </mxCell>
        <mxCell id="TVU8WiVwyzAPrq7MWqk_-151" value="&amp;gt;" style="edgeLabel;html=1;align=center;verticalAlign=middle;resizable=0;points=[];fontSize=12;fontStyle=1" parent="TVU8WiVwyzAPrq7MWqk_-96" vertex="1" connectable="0">
          <mxGeometry x="-0.0917" y="-2" relative="1" as="geometry">
            <mxPoint as="offset" />
          </mxGeometry>
        </mxCell>
        <mxCell id="TVU8WiVwyzAPrq7MWqk_-92" value="&lt;b&gt;minus&lt;/b&gt;" style="ellipse;whiteSpace=wrap;html=1;fontSize=12;" parent="1" vertex="1">
          <mxGeometry x="415" y="810.0500000000001" width="80" height="80" as="geometry" />
        </mxCell>
        <mxCell id="TVU8WiVwyzAPrq7MWqk_-93" value="&lt;b&gt;plus&lt;/b&gt;" style="ellipse;whiteSpace=wrap;html=1;fontSize=12;" parent="1" vertex="1">
          <mxGeometry x="505" y="875.0500000000001" width="80" height="80" as="geometry" />
        </mxCell>
        <mxCell id="TVU8WiVwyzAPrq7MWqk_-95" value="&lt;b&gt;Arrow&lt;/b&gt;" style="ellipse;whiteSpace=wrap;html=1;fontSize=12;" parent="1" vertex="1">
          <mxGeometry x="395" y="950.05" width="80" height="80" as="geometry" />
        </mxCell>
        <mxCell id="TVU8WiVwyzAPrq7MWqk_-116" style="edgeStyle=orthogonalEdgeStyle;rounded=0;orthogonalLoop=1;jettySize=auto;html=1;entryX=0;entryY=0;entryDx=0;entryDy=0;curved=1;fontSize=12;" parent="1" source="TVU8WiVwyzAPrq7MWqk_-82" target="TVU8WiVwyzAPrq7MWqk_-82" edge="1">
          <mxGeometry relative="1" as="geometry">
            <Array as="points">
              <mxPoint x="525.82" y="2.0400000000000036" />
              <mxPoint x="485.82" y="2.0400000000000036" />
              <mxPoint x="485.82" y="62.040000000000006" />
            </Array>
            <mxPoint x="565.82" y="90.04" as="sourcePoint" />
          </mxGeometry>
        </mxCell>
        <mxCell id="TVU8WiVwyzAPrq7MWqk_-117" value="Σ-EOL" style="edgeLabel;html=1;align=center;verticalAlign=middle;resizable=0;points=[];fontSize=12;fontStyle=1" parent="TVU8WiVwyzAPrq7MWqk_-116" vertex="1" connectable="0">
          <mxGeometry x="0.0267" y="2" relative="1" as="geometry">
            <mxPoint as="offset" />
          </mxGeometry>
        </mxCell>
        <mxCell id="TVU8WiVwyzAPrq7MWqk_-134" style="rounded=0;orthogonalLoop=1;jettySize=auto;html=1;exitX=0.5;exitY=0;exitDx=0;exitDy=0;entryX=1;entryY=1;entryDx=0;entryDy=0;edgeStyle=orthogonalEdgeStyle;curved=1;fontSize=12;" parent="1" source="TVU8WiVwyzAPrq7MWqk_-121" target="TVU8WiVwyzAPrq7MWqk_-124" edge="1">
          <mxGeometry relative="1" as="geometry">
            <Array as="points">
              <mxPoint x="410" y="27.92" />
            </Array>
          </mxGeometry>
        </mxCell>
        <mxCell id="TVU8WiVwyzAPrq7MWqk_-135" value="*" style="edgeLabel;html=1;align=center;verticalAlign=middle;resizable=0;points=[];fontSize=12;fontStyle=1" parent="TVU8WiVwyzAPrq7MWqk_-134" vertex="1" connectable="0">
          <mxGeometry x="0.1986" y="2" relative="1" as="geometry">
            <mxPoint as="offset" />
          </mxGeometry>
        </mxCell>
        <mxCell id="TVU8WiVwyzAPrq7MWqk_-121" value="Block_comment" style="ellipse;whiteSpace=wrap;html=1;fontSize=12;" parent="1" vertex="1">
          <mxGeometry x="370" y="87.82000000000001" width="80" height="80" as="geometry" />
        </mxCell>
        <mxCell id="TVU8WiVwyzAPrq7MWqk_-122" style="rounded=0;orthogonalLoop=1;jettySize=auto;html=1;exitX=0;exitY=0;exitDx=0;exitDy=0;entryX=1;entryY=1;entryDx=0;entryDy=0;fontSize=12;" parent="1" source="TVU8WiVwyzAPrq7MWqk_-78" target="TVU8WiVwyzAPrq7MWqk_-121" edge="1">
          <mxGeometry relative="1" as="geometry" />
        </mxCell>
        <mxCell id="TVU8WiVwyzAPrq7MWqk_-123" value="*" style="edgeLabel;html=1;align=center;verticalAlign=middle;resizable=0;points=[];fontSize=12;fontStyle=1" parent="TVU8WiVwyzAPrq7MWqk_-122" vertex="1" connectable="0">
          <mxGeometry x="0.0036" y="-3" relative="1" as="geometry">
            <mxPoint as="offset" />
          </mxGeometry>
        </mxCell>
        <mxCell id="TVU8WiVwyzAPrq7MWqk_-140" style="edgeStyle=orthogonalEdgeStyle;rounded=0;orthogonalLoop=1;jettySize=auto;html=1;exitX=0.5;exitY=1;exitDx=0;exitDy=0;entryX=0;entryY=0;entryDx=0;entryDy=0;curved=1;fontSize=12;" parent="1" source="TVU8WiVwyzAPrq7MWqk_-124" target="TVU8WiVwyzAPrq7MWqk_-121" edge="1">
          <mxGeometry relative="1" as="geometry">
            <Array as="points">
              <mxPoint x="360" y="99.92" />
            </Array>
          </mxGeometry>
        </mxCell>
        <mxCell id="TVU8WiVwyzAPrq7MWqk_-141" value="Σ-/" style="edgeLabel;html=1;align=center;verticalAlign=middle;resizable=0;points=[];fontSize=12;fontStyle=1" parent="TVU8WiVwyzAPrq7MWqk_-140" vertex="1" connectable="0">
          <mxGeometry x="-0.3832" y="5" relative="1" as="geometry">
            <mxPoint as="offset" />
          </mxGeometry>
        </mxCell>
        <mxCell id="TVU8WiVwyzAPrq7MWqk_-143" style="edgeStyle=orthogonalEdgeStyle;rounded=0;orthogonalLoop=1;jettySize=auto;html=1;exitX=0;exitY=1;exitDx=0;exitDy=0;entryX=0.5;entryY=0;entryDx=0;entryDy=0;curved=1;fontSize=12;fontStyle=1" parent="1" source="TVU8WiVwyzAPrq7MWqk_-124" target="jqPWbYdJGxuGW5hHQSQh-1" edge="1">
          <mxGeometry relative="1" as="geometry">
            <Array as="points">
              <mxPoint x="260" y="28" />
              <mxPoint x="260" y="300" />
              <mxPoint x="490" y="300" />
              <mxPoint x="490" y="354" />
            </Array>
          </mxGeometry>
        </mxCell>
        <mxCell id="TVU8WiVwyzAPrq7MWqk_-145" value="/" style="edgeLabel;html=1;align=center;verticalAlign=middle;resizable=0;points=[];fontSize=12;fontStyle=1" parent="TVU8WiVwyzAPrq7MWqk_-143" vertex="1" connectable="0">
          <mxGeometry x="-0.287" y="5" relative="1" as="geometry">
            <mxPoint y="15" as="offset" />
          </mxGeometry>
        </mxCell>
        <mxCell id="TVU8WiVwyzAPrq7MWqk_-124" value="Block_comment&lt;br style=&quot;font-size: 12px;&quot;&gt;_leave" style="ellipse;whiteSpace=wrap;html=1;fontSize=12;" parent="1" vertex="1">
          <mxGeometry x="319.97" y="-40.05999999999999" width="80" height="80" as="geometry" />
        </mxCell>
        <mxCell id="TVU8WiVwyzAPrq7MWqk_-125" style="edgeStyle=orthogonalEdgeStyle;rounded=0;orthogonalLoop=1;jettySize=auto;html=1;exitX=0.613;exitY=1.009;exitDx=0;exitDy=0;entryX=0;entryY=1;entryDx=0;entryDy=0;curved=1;exitPerimeter=0;fontSize=12;" parent="1" source="TVU8WiVwyzAPrq7MWqk_-121" target="TVU8WiVwyzAPrq7MWqk_-121" edge="1">
          <mxGeometry relative="1" as="geometry">
            <Array as="points">
              <mxPoint x="419" y="209.92000000000002" />
              <mxPoint x="370" y="209.92000000000002" />
              <mxPoint x="370" y="155.92000000000002" />
            </Array>
          </mxGeometry>
        </mxCell>
        <mxCell id="TVU8WiVwyzAPrq7MWqk_-131" value="Σ-*" style="edgeLabel;html=1;align=center;verticalAlign=middle;resizable=0;points=[];fontSize=12;fontStyle=1" parent="TVU8WiVwyzAPrq7MWqk_-125" vertex="1" connectable="0">
          <mxGeometry x="0.3615" y="1" relative="1" as="geometry">
            <mxPoint as="offset" />
          </mxGeometry>
        </mxCell>
        <mxCell id="TVU8WiVwyzAPrq7MWqk_-136" style="edgeStyle=orthogonalEdgeStyle;rounded=0;orthogonalLoop=1;jettySize=auto;html=1;exitX=1;exitY=0;exitDx=0;exitDy=0;entryX=1;entryY=0.5;entryDx=0;entryDy=0;curved=1;fontSize=12;" parent="1" source="TVU8WiVwyzAPrq7MWqk_-124" target="TVU8WiVwyzAPrq7MWqk_-124" edge="1">
          <mxGeometry relative="1" as="geometry">
            <Array as="points">
              <mxPoint x="387.97" y="-50.05999999999999" />
              <mxPoint x="429.97" y="-50.05999999999999" />
              <mxPoint x="429.97" y="-0.05999999999998806" />
            </Array>
          </mxGeometry>
        </mxCell>
        <mxCell id="TVU8WiVwyzAPrq7MWqk_-137" value="*" style="edgeLabel;html=1;align=center;verticalAlign=middle;resizable=0;points=[];fontSize=12;fontStyle=1" parent="TVU8WiVwyzAPrq7MWqk_-136" vertex="1" connectable="0">
          <mxGeometry x="0.0755" y="-3" relative="1" as="geometry">
            <mxPoint as="offset" />
          </mxGeometry>
        </mxCell>
        <mxCell id="TVU8WiVwyzAPrq7MWqk_-147" value="" style="ellipse;whiteSpace=wrap;html=1;fontSize=12;" parent="1" vertex="1">
          <mxGeometry x="820" y="820.0500000000001" width="90" height="90" as="geometry" />
        </mxCell>
        <mxCell id="TVU8WiVwyzAPrq7MWqk_-148" value="&lt;b&gt;comma&lt;/b&gt;" style="ellipse;whiteSpace=wrap;html=1;fontSize=12;" parent="1" vertex="1">
          <mxGeometry x="825" y="825.0500000000001" width="80" height="80" as="geometry" />
        </mxCell>
        <mxCell id="TVU8WiVwyzAPrq7MWqk_-158" style="rounded=0;orthogonalLoop=1;jettySize=auto;html=1;exitX=1;exitY=1;exitDx=0;exitDy=0;entryX=0;entryY=0;entryDx=0;entryDy=0;fontSize=12;" parent="1" source="TVU8WiVwyzAPrq7MWqk_-152" target="TVU8WiVwyzAPrq7MWqk_-157" edge="1">
          <mxGeometry relative="1" as="geometry" />
        </mxCell>
        <mxCell id="TVU8WiVwyzAPrq7MWqk_-159" value="=" style="edgeLabel;html=1;align=center;verticalAlign=middle;resizable=0;points=[];fontSize=12;fontStyle=1" parent="TVU8WiVwyzAPrq7MWqk_-158" vertex="1" connectable="0">
          <mxGeometry x="-0.0654" y="3" relative="1" as="geometry">
            <mxPoint as="offset" />
          </mxGeometry>
        </mxCell>
        <mxCell id="TVU8WiVwyzAPrq7MWqk_-152" value="" style="ellipse;whiteSpace=wrap;html=1;fontSize=12;" parent="1" vertex="1">
          <mxGeometry x="825" y="715.0500000000001" width="90" height="90" as="geometry" />
        </mxCell>
        <mxCell id="TVU8WiVwyzAPrq7MWqk_-153" value="&lt;b&gt;equal&lt;/b&gt;" style="ellipse;whiteSpace=wrap;html=1;fontSize=12;" parent="1" vertex="1">
          <mxGeometry x="830" y="720.0500000000001" width="80" height="80" as="geometry" />
        </mxCell>
        <mxCell id="TVU8WiVwyzAPrq7MWqk_-156" value="" style="ellipse;whiteSpace=wrap;html=1;fontSize=12;" parent="1" vertex="1">
          <mxGeometry x="940" y="860.0500000000001" width="90" height="90" as="geometry" />
        </mxCell>
        <mxCell id="TVU8WiVwyzAPrq7MWqk_-157" value="&lt;b&gt;compare&lt;/b&gt;" style="ellipse;whiteSpace=wrap;html=1;fontSize=12;" parent="1" vertex="1">
          <mxGeometry x="945" y="865.0500000000001" width="80" height="80" as="geometry" />
        </mxCell>
        <mxCell id="TVU8WiVwyzAPrq7MWqk_-170" style="rounded=0;orthogonalLoop=1;jettySize=auto;html=1;exitX=1;exitY=1;exitDx=0;exitDy=0;entryX=0;entryY=0;entryDx=0;entryDy=0;fontSize=12;" parent="1" source="TVU8WiVwyzAPrq7MWqk_-163" target="TVU8WiVwyzAPrq7MWqk_-169" edge="1">
          <mxGeometry relative="1" as="geometry" />
        </mxCell>
        <mxCell id="TVU8WiVwyzAPrq7MWqk_-200" value="=" style="edgeLabel;html=1;align=center;verticalAlign=middle;resizable=0;points=[];fontSize=12;fontStyle=1" parent="TVU8WiVwyzAPrq7MWqk_-170" vertex="1" connectable="0">
          <mxGeometry x="-0.1767" relative="1" as="geometry">
            <mxPoint as="offset" />
          </mxGeometry>
        </mxCell>
        <mxCell id="TVU8WiVwyzAPrq7MWqk_-163" value="&lt;b&gt;Expl_mark&lt;/b&gt;" style="ellipse;whiteSpace=wrap;html=1;fontSize=12;" parent="1" vertex="1">
          <mxGeometry x="950" y="730.0500000000001" width="80" height="80" as="geometry" />
        </mxCell>
        <mxCell id="TVU8WiVwyzAPrq7MWqk_-168" value="" style="ellipse;whiteSpace=wrap;html=1;fontSize=12;" parent="1" vertex="1">
          <mxGeometry x="1050" y="830.0500000000001" width="90" height="90" as="geometry" />
        </mxCell>
        <mxCell id="TVU8WiVwyzAPrq7MWqk_-169" value="&lt;b&gt;not_equal&lt;/b&gt;" style="ellipse;whiteSpace=wrap;html=1;fontSize=12;" parent="1" vertex="1">
          <mxGeometry x="1055" y="835.0500000000001" width="80" height="80" as="geometry" />
        </mxCell>
        <mxCell id="TVU8WiVwyzAPrq7MWqk_-171" value="" style="ellipse;whiteSpace=wrap;html=1;fontSize=12;" parent="1" vertex="1">
          <mxGeometry x="310" y="855.0500000000001" width="90" height="90" as="geometry" />
        </mxCell>
        <mxCell id="TVU8WiVwyzAPrq7MWqk_-172" value="&lt;b&gt;times&lt;/b&gt;" style="ellipse;whiteSpace=wrap;html=1;fontSize=12;" parent="1" vertex="1">
          <mxGeometry x="315" y="860.0500000000001" width="80" height="80" as="geometry" />
        </mxCell>
        <mxCell id="TVU8WiVwyzAPrq7MWqk_-188" style="rounded=0;orthogonalLoop=1;jettySize=auto;html=1;exitX=0.5;exitY=1;exitDx=0;exitDy=0;entryX=0.5;entryY=0;entryDx=0;entryDy=0;fontSize=12;" parent="1" source="TVU8WiVwyzAPrq7MWqk_-177" target="TVU8WiVwyzAPrq7MWqk_-185" edge="1">
          <mxGeometry relative="1" as="geometry" />
        </mxCell>
        <mxCell id="TVU8WiVwyzAPrq7MWqk_-189" value="=" style="edgeLabel;html=1;align=center;verticalAlign=middle;resizable=0;points=[];fontSize=12;fontStyle=1" parent="TVU8WiVwyzAPrq7MWqk_-188" vertex="1" connectable="0">
          <mxGeometry x="0.0398" y="1" relative="1" as="geometry">
            <mxPoint x="-1" as="offset" />
          </mxGeometry>
        </mxCell>
        <mxCell id="TVU8WiVwyzAPrq7MWqk_-177" value="" style="ellipse;whiteSpace=wrap;html=1;fontSize=12;" parent="1" vertex="1">
          <mxGeometry x="260" y="765.0500000000001" width="90" height="90" as="geometry" />
        </mxCell>
        <mxCell id="TVU8WiVwyzAPrq7MWqk_-178" value="&lt;b&gt;greater&lt;/b&gt;" style="ellipse;whiteSpace=wrap;html=1;fontSize=12;" parent="1" vertex="1">
          <mxGeometry x="265" y="770.0500000000001" width="80" height="80" as="geometry" />
        </mxCell>
        <mxCell id="TVU8WiVwyzAPrq7MWqk_-190" style="rounded=0;orthogonalLoop=1;jettySize=auto;html=1;exitX=0;exitY=1;exitDx=0;exitDy=0;entryX=1;entryY=0;entryDx=0;entryDy=0;fontSize=12;" parent="1" source="TVU8WiVwyzAPrq7MWqk_-179" target="TVU8WiVwyzAPrq7MWqk_-186" edge="1">
          <mxGeometry relative="1" as="geometry" />
        </mxCell>
        <mxCell id="TVU8WiVwyzAPrq7MWqk_-192" value="=" style="edgeLabel;html=1;align=center;verticalAlign=middle;resizable=0;points=[];fontSize=12;fontStyle=1" parent="TVU8WiVwyzAPrq7MWqk_-190" vertex="1" connectable="0">
          <mxGeometry x="-0.117" relative="1" as="geometry">
            <mxPoint as="offset" />
          </mxGeometry>
        </mxCell>
        <mxCell id="TVU8WiVwyzAPrq7MWqk_-179" value="" style="ellipse;whiteSpace=wrap;html=1;fontSize=12;" parent="1" vertex="1">
          <mxGeometry x="160" y="820.0500000000001" width="90" height="90" as="geometry" />
        </mxCell>
        <mxCell id="TVU8WiVwyzAPrq7MWqk_-180" value="&lt;b&gt;lesser&lt;/b&gt;" style="ellipse;whiteSpace=wrap;html=1;fontSize=12;" parent="1" vertex="1">
          <mxGeometry x="165" y="825.0500000000001" width="80" height="80" as="geometry" />
        </mxCell>
        <mxCell id="TVU8WiVwyzAPrq7MWqk_-184" value="" style="ellipse;whiteSpace=wrap;html=1;fontSize=12;" parent="1" vertex="1">
          <mxGeometry x="210" y="950.05" width="90" height="90" as="geometry" />
        </mxCell>
        <mxCell id="TVU8WiVwyzAPrq7MWqk_-185" value="&lt;b&gt;greater_equal&lt;/b&gt;" style="ellipse;whiteSpace=wrap;html=1;fontSize=12;" parent="1" vertex="1">
          <mxGeometry x="215" y="955.05" width="80" height="80" as="geometry" />
        </mxCell>
        <mxCell id="TVU8WiVwyzAPrq7MWqk_-186" value="" style="ellipse;whiteSpace=wrap;html=1;fontSize=12;" parent="1" vertex="1">
          <mxGeometry x="70" y="935.0500000000001" width="90" height="90" as="geometry" />
        </mxCell>
        <mxCell id="TVU8WiVwyzAPrq7MWqk_-187" value="&lt;b&gt;lesser_equal&lt;/b&gt;" style="ellipse;whiteSpace=wrap;html=1;fontSize=12;" parent="1" vertex="1">
          <mxGeometry x="75" y="940.05" width="80" height="80" as="geometry" />
        </mxCell>
        <mxCell id="TVU8WiVwyzAPrq7MWqk_-193" style="rounded=0;orthogonalLoop=1;jettySize=auto;html=1;exitX=0.957;exitY=0.723;exitDx=0;exitDy=0;entryX=0;entryY=0;entryDx=0;entryDy=0;fontSize=12;exitPerimeter=0;" parent="1" source="TVU8WiVwyzAPrq7MWqk_-194" target="TVU8WiVwyzAPrq7MWqk_-196" edge="1">
          <mxGeometry relative="1" as="geometry" />
        </mxCell>
        <mxCell id="TVU8WiVwyzAPrq7MWqk_-199" value="?" style="edgeLabel;html=1;align=center;verticalAlign=middle;resizable=0;points=[];fontSize=12;fontStyle=1" parent="TVU8WiVwyzAPrq7MWqk_-193" vertex="1" connectable="0">
          <mxGeometry x="0.014" relative="1" as="geometry">
            <mxPoint y="-1" as="offset" />
          </mxGeometry>
        </mxCell>
        <mxCell id="TVU8WiVwyzAPrq7MWqk_-194" value="question_mark" style="ellipse;whiteSpace=wrap;html=1;fontSize=12;" parent="1" vertex="1">
          <mxGeometry x="940" y="630.0000000000001" width="80" height="80" as="geometry" />
        </mxCell>
        <mxCell id="TVU8WiVwyzAPrq7MWqk_-195" value="" style="ellipse;whiteSpace=wrap;html=1;fontSize=12;" parent="1" vertex="1">
          <mxGeometry x="1075" y="730.0500000000001" width="90" height="90" as="geometry" />
        </mxCell>
        <mxCell id="TVU8WiVwyzAPrq7MWqk_-196" value="&lt;b&gt;2qm&lt;/b&gt;" style="ellipse;whiteSpace=wrap;html=1;fontSize=12;" parent="1" vertex="1">
          <mxGeometry x="1080" y="735.0500000000001" width="80" height="80" as="geometry" />
        </mxCell>
      </root>
    </mxGraphModel>
  </diagram>
</mxfile>
